<svg width="146" height="153" viewBox="0 0 146 153" fill="none" xmlns="http://www.w3.org/2000/svg">
<path d="M51.3585 139.398C33.8381 140.292 4.88736 142.431 4.82574 143.773C4.76492 145.092 9.74743 142.933 43.4006 140.93C45.6134 140.798 47.8605 140.681 50.1285 140.576C50.463 140.24 50.8632 139.859 51.3585 139.398Z" fill="black"/>
<path d="M89.7166 138.711C89.9406 138.984 90.1727 139.271 90.4232 139.59C90.4752 139.656 90.5184 139.716 90.5696 139.781C116.81 139.81 138.286 140.666 138.787 140.43C141.601 139.108 114 138.685 89.7166 138.712V138.711Z" fill="black"/>
<path d="M125.031 36.5454C124.886 36.5326 124.7 36.5134 124.49 36.491C124.693 39.1119 124.858 42.1434 125.006 45.1364C124.836 55.4568 126.255 101.188 123.09 101.65C114.497 102.905 83.7882 104.2 79.9597 104.409C62.8049 105.345 30.3113 105.43 12.9878 103.944C7.62754 103.483 8.18853 103.797 8.06289 100.452C5.87094 42.1602 8.81595 31.3996 8.83115 30.5769C8.84876 29.611 9.07524 27.6479 9.42736 26.726C9.56581 26.3634 9.77788 26.0753 10.2356 26.0137C11.4176 25.8553 10.2092 25.5303 19.9318 24.7693C41.6472 23.0671 75.3725 21.1 101.785 22.7518C101.257 20.4878 101.203 18.1197 101.62 15.8037C68.7622 14.0615 13.9033 15.7589 5.13308 20.583C3.47251 21.4961 3.10919 22.7734 2.59541 24.1899C-1.67324 35.9692 0.0265421 105.008 2.67944 116.611C3.27804 119.23 3.61256 120.644 5.12508 121.747C6.95371 123.082 12.2283 123.765 13.2279 123.806C13.9281 123.834 16.3849 124.359 19.3412 124.741C21.7228 125.049 25.6225 125.243 25.733 125.257C33.1275 126.173 41.9145 126.211 55.7113 126.399C56.1202 126.405 56.0786 126.356 55.9345 128.269C55.3888 135.503 55.8729 135.622 54.9966 136.066C49.1162 141.432 49.7812 140.746 47.0123 144.341C46.212 145.38 45.1957 146.891 45.2629 148.093C45.3005 148.762 45.3693 150.929 45.6454 151.497C46.7106 153.687 65.9668 152.892 68.6949 152.707C74.5938 152.307 88.393 152.243 93.5444 151.071C94.0317 150.96 94.323 150.681 94.4863 150.221C94.7848 149.383 95.0449 146.827 94.6319 146.039C93.8373 144.519 92.7289 142.539 90.4193 139.59C84.7093 132.304 85.9337 137.607 85.1407 131.769C84.3164 125.698 84.37 126.014 84.6517 126.02C84.4708 126.026 113.026 124.696 124.355 121.967C126.272 121.506 128.093 121.031 129.145 119.033C133.123 111.479 133.622 58.1114 132.149 35.7003C130.331 36.1925 129.986 36.2037 125.03 36.5454H125.031ZM85.7113 140.016C85.9426 140.664 86.0994 140.681 86.3515 140.66C87.0317 140.602 86.4659 139.225 85.8449 136.176C88.6083 138.59 91.6157 143.077 93.4403 145.685C94.1077 146.638 92.3295 146.516 81.2233 147.21C81.0697 147.219 51.9028 148.572 47.4108 147.969C45.4397 147.704 45.3557 148.061 50.1414 142.006C51.5162 140.265 54.6789 137.38 55.3311 136.957C55.6352 136.76 55.3455 137.278 55.1815 140.814C55.1591 141.304 55.5856 141.712 55.7145 141.381C56.734 138.765 57.1446 129.2 57.0133 129.2C57.0133 126.381 56.9125 126.403 57.2558 126.402C69.2103 126.372 58.0537 126.84 78.063 126.282C83.0536 126.142 81.3338 126.244 83.0536 126.11C83.288 126.091 83.212 126.242 83.3032 127.184C83.8282 132.609 85.1871 138.541 85.7121 140.015L85.7113 140.016ZM128.413 117.998C127.512 120.305 126.008 120.621 119.311 122.014C115.153 122.879 89.3965 124.676 89.3773 124.677C86.7932 124.905 66.5766 125.438 66.5758 125.409C30.577 125.409 23.413 123.816 16.0016 122.947C7.61474 121.963 5.1955 122.014 4.22077 118.261C3.75741 116.477 2.99635 113.456 2.95393 111.613C2.93153 110.603 2.73466 110.221 3.03876 110.343C6.61759 111.779 58.5707 112.179 82.2853 111.353C94.5895 110.924 91.6805 110.721 102.062 110.287C123.789 109.379 127.351 108.032 130.095 108.027C130.163 110.723 129.237 115.884 128.412 117.999L128.413 117.998Z" fill="black"/>
<path d="M87.3363 46.5455C86.9921 42.9594 85.7413 36.5148 81.2382 33.18C81.5151 32.5982 81.279 31.8931 80.7036 31.597C78.6669 30.5503 71.4852 27.2659 64.6317 28.9433C58.155 30.5279 53.8527 34.422 52.3034 36.0226C51.8217 36.5212 51.8609 37.319 52.3834 37.7688C52.4563 37.8312 52.5331 37.8968 52.6115 37.9641C50.5604 41.4917 50.1795 45.9589 51.3967 51.9954C51.4783 52.3995 51.5039 52.5316 51.6584 52.6124C51.8345 52.7052 52.0329 52.6004 52.2938 52.4868C52.6555 52.3299 52.6403 52.1843 52.5411 51.7865C51.592 47.9596 51.6152 42.1279 53.5254 38.7267C54.1088 39.1973 54.7867 39.0893 55.1956 38.6619C56.5233 37.2742 60.2421 33.9395 66.0802 32.9335C71.9446 31.9236 77.1191 33.9603 79.071 34.8822C79.6664 35.1623 80.3619 34.923 80.6564 34.3364L80.6724 34.3044C83.9679 37.0149 85.9662 42.4064 86.0086 46.2358C86.0166 46.8848 86.3815 46.8312 87.153 46.7632C87.2626 46.7536 87.3451 46.6559 87.3347 46.5447L87.3363 46.5455ZM79.4143 34.1595C77.3936 33.2048 72.0374 31.0969 65.9457 32.146C59.8732 33.192 56.0015 36.6652 54.6186 38.1097C54.4762 38.2586 54.2401 38.2746 54.08 38.1449C53.7175 37.8536 53.2653 37.4703 52.906 37.1614C52.7308 37.0109 52.718 36.7444 52.8796 36.578C56.8202 32.507 63.0295 29.2722 68.6955 29.2722C73.9429 29.2722 78.7509 31.4922 80.3387 32.3077C80.5331 32.4077 80.6115 32.6478 80.5131 32.8423L79.9441 33.9763C79.8457 34.1715 79.6144 34.2516 79.4151 34.1579L79.4143 34.1595Z" fill="black"/>
<path d="M31.7062 71.9574C31.587 72.5496 31.1492 72.4615 31.0164 72.043C30.4154 70.1511 30.6827 69.4549 28.9501 68.1648C28.7636 68.0264 27.8833 67.3565 27.7769 67.1221C27.6432 66.8284 27.9665 66.5355 28.2074 66.6475C30.5834 67.7575 32.2224 69.3853 31.7062 71.9574Z" fill="black"/>
<path d="M82.0107 50.8402C81.8147 54.9872 81.8411 55.4018 78.027 56.2845C73.4534 57.3425 73.7423 56.7159 72.8565 54.4703C72.0706 52.4768 72.3787 51.9062 71.9201 51.7317C71.5928 51.6077 71.6528 51.2939 70.7141 51.2147C68.7831 51.0523 68.2701 51.5668 67.0761 52.6792C66.9376 52.8081 66.9968 53.694 67.0089 53.81C67.1721 55.3946 67.0473 56.0868 66.9888 57.0176C66.8936 58.5253 65.2346 58.8302 63.6285 59.0023C60.6803 59.3184 59.4094 60.1354 58.161 56.6518C57.7145 55.4066 56.45 52.119 57.592 51.4524C59.2294 50.4969 64.0286 49.4357 64.2231 49.4045C67.6211 48.8675 66.4303 51.3868 67.0841 50.8506C69.6506 48.7475 71.1951 50.1239 71.5032 49.9599C71.6624 49.8751 71.1175 48.4369 72.6148 47.8687C73.4966 47.5342 74.024 47.4198 77.7485 46.8756C81.9435 46.2626 81.8283 46.938 82.0107 50.8402ZM80.6615 50.7858C80.527 47.4782 80.948 47.8784 78.3727 48.1216C78.3535 48.1232 73.8671 48.7219 73.2581 48.9651C72.8373 49.1332 72.9381 49.4109 73.1597 50.2904C73.8047 52.8473 74.3633 55.5899 75.3148 55.4146C79.237 54.6927 78.9361 54.6551 79.7572 54.395C80.4702 54.1686 80.4054 53.5772 80.6615 50.7858ZM65.63 54.5479C65.602 53.4635 65.7668 53.8244 65.3459 50.8922C65.2795 50.428 64.8985 50.2944 58.79 52.1679C58.3195 52.3119 58.1282 52.3623 58.3403 53.0834C59.784 57.9883 60.0521 58.2804 61.8887 57.9011C65.8965 57.072 65.7236 58.1764 65.63 54.5479Z" fill="black"/>
<path d="M74.8691 69.0625C74.0968 70.5534 72.4051 70.8808 71.8137 70.5134C71.3943 70.2525 71.7401 69.986 72.2162 69.9052C74.3017 69.5515 74.829 67.0138 74.661 64.9051C74.1008 65.374 72.6067 67.2539 69.9178 66.7969C69.5033 66.7265 69.0759 66.0047 70.3252 66.0407C71.7296 66.0815 73.2365 65.3292 73.9055 64.0432C74.272 63.3381 74.2888 62.9404 74.8322 62.8619C76.2039 62.6635 75.8982 67.0746 74.8691 69.0625Z" fill="black"/>
<path d="M69.4987 53.3207C70.1238 53.4415 69.3987 54.4811 69.3123 57.5157C69.2931 58.2016 69.3947 58.8882 69.6004 59.5396C70.3967 62.0629 73.3816 59.2476 74.2971 59.3972C76.0129 59.6773 69.6268 64.511 68.368 59.8045C67.9198 58.1296 68.7505 53.1766 69.4995 53.3215L69.4987 53.3207Z" fill="black"/>
<path d="M76.3394 43.2C76.6315 43.7538 75.9224 44.0419 75.4943 43.9242C74.3795 43.6169 73.3551 43.3736 72.3469 43.5273C71.9092 43.5937 71.4178 43.14 71.7691 42.687C72.451 41.8075 75.82 42.2156 76.3394 43.2Z" fill="black"/>
<path d="M62.2387 43.9556C63.0422 43.9108 63.1447 44.491 62.6661 44.8583C61.8498 45.4849 61.336 45.3889 60.166 46.6709C59.8715 46.9942 59.6306 47.2655 59.2473 47.0367C58.1894 46.4044 60.4549 44.0548 62.2387 43.9556Z" fill="black"/>
<path d="M77.0231 51.9011C77.0143 50.9119 76.0068 50.5518 75.4802 51.3313C75.1401 51.8307 75.4322 52.8918 76.198 52.8918C76.6726 52.8918 77.0888 52.4453 77.0231 51.9011Z" fill="black"/>
<path d="M62.4959 53.6199C62.3303 54.0041 62.4639 54.7099 62.7512 54.9676C63.0753 55.2589 63.6235 55.2437 63.8428 54.8244C64.5662 53.4439 62.9481 52.562 62.4959 53.6199Z" fill="black"/>
<path d="M117.342 94.5195L116.746 95.299C120.214 98.2152 121.59 100.055 122.174 99.7326C122.877 99.3452 119.959 96.7019 117.342 94.5195Z" fill="black"/>
<path d="M106.807 87.1922C95.6605 81.1693 85.0945 80.0361 84.796 77.3247C84.7936 77.3047 84.4959 75.789 84.4382 74.771C84.3062 72.4246 84.5879 72.4702 85.1129 67.971C85.1297 67.8286 85.6282 63.6007 85.7203 63.4911C85.7259 63.4847 87.0872 63.1814 87.3736 63.1069C87.9266 62.9637 88.4596 62.7428 89.0454 62.7324C89.1959 62.7292 89.3495 62.642 89.492 62.5739C92.7371 61.0278 92.357 59.7714 92.2265 55.7203C92.2265 55.7011 91.8616 52.1911 91.7792 51.8302C91.4631 50.4537 91.1998 49.13 90.3763 48.1145C89.2967 46.782 88.5957 46.5171 87.8954 46.3675C87.3112 46.2426 85.613 45.9961 85.0368 46.1522C83.9877 46.4363 85.1593 43.408 81.9454 39.1321C78.5162 34.5697 73.7378 34.3865 70.4247 33.9631C70.2246 33.9375 70.015 34.0103 69.8085 34.0191C69.4428 34.0359 69.2491 33.7894 69.2083 33.5758C68.5281 29.9793 68.8778 29.9433 68.7545 28.414C68.7033 27.7777 68.0775 27.845 67.6141 28.2843C66.108 29.7128 66.3033 29.6176 65.435 31.0341C64.97 31.7928 64.9876 31.5207 65.0389 27.805C65.0493 27.0567 64.4587 26.9038 64.0705 27.232C63.5943 27.6345 63.0838 27.9994 62.6316 28.4268C61.6769 29.3279 60.4445 30.818 60.246 32.4258C60.13 33.3685 59.8963 34.6618 60.3612 36.0278C60.6021 36.7353 60.4581 36.1471 58.3854 37.6724C57.0713 38.6399 55.5436 40.5446 55.3363 40.8439C50.8948 47.2478 54.3248 50.853 53.4613 51.1491C52.04 51.6373 51.4565 51.8462 50.6659 52.2495C48.2019 53.5052 48.0002 56.7479 48.5964 59.4913C49.0582 61.616 49.6896 64.5642 50.6035 66.3449C52.4417 69.9269 57.9196 67.1619 58.411 68.1543C59.7794 70.9169 60.7838 72.5014 63.2478 74.3549C63.6032 74.6222 63.9145 74.9551 64.3489 75.1127C64.4699 75.1567 64.4739 75.2568 64.4282 75.3896C63.2822 78.7348 63.9345 78.5131 63.095 78.6588C55.4484 79.988 40.1823 84.8201 34.9189 88.1125C31.6194 90.1772 31.677 90.2244 31.7042 89.9819C31.8715 88.519 32.9406 82.3785 33.8185 79.7544C33.8569 79.6391 34.9701 76.37 35.3126 76.0523C39.2396 72.407 38.9139 73.2873 41.3027 67.1571C42.4463 64.2225 42.7584 63.836 42.6952 63.1389C42.6071 62.1674 41.5228 62.3539 40.8585 63.0669C39.3284 64.7091 39.0851 65.7831 38.4145 66.8538C38.252 67.1131 38.0736 67.0955 37.5078 67.178C37.1757 67.2268 37.3493 66.9051 37.2661 66.3769C36.5947 62.1074 38.5129 60.6581 39.6701 55.0521C39.8406 54.2286 38.6938 53.0474 37.635 54.6023C34.9517 58.5413 34.2179 62.854 33.6665 62.2546C33.6064 62.189 33.544 62.0962 33.5416 62.0137C33.5144 60.9598 33.8417 58.0724 33.8457 58.0524C33.9802 57.4337 34.1954 53.017 33.7265 52.2247C33.1591 51.2644 32.1804 51.6389 31.8354 52.6208C30.4646 56.527 30.9271 55.6523 30.0724 60.7525C30.0404 60.9438 29.9796 60.9902 29.7395 61.0182C29.5787 61.0366 29.4474 61.0142 29.4042 60.8333C28.255 56.0813 28.9224 54.4055 27.6644 53.4699C27.145 53.0842 26.3968 53.2203 26.1983 53.8637C25.5061 56.1061 25.9974 57.6082 26.2999 60.8829C26.4336 62.333 26.4288 62.3202 26.2639 62.3995C25.8886 62.5795 25.8966 62.3202 22.906 57.6034C22.1833 56.4638 21.3318 56.5974 21.0477 57.2321C20.4947 58.4637 22.7307 63.0149 23.4694 64.0328C23.8879 64.6099 23.8231 64.9604 23.9983 66.8642C24.5257 72.6143 26.7081 74.1532 26.4872 74.6502C26.3135 75.0407 26.2503 75.4737 25.991 75.833C23.5182 79.2574 24.5073 78.5499 19.4056 83.366C17.2328 85.4171 12.3888 89.5474 10.2904 93.2655C10.0247 93.7353 10.3849 94.0306 10.8242 93.696C10.8738 93.6584 11.7477 92.7901 12.1063 92.39C20.4827 83.0443 23.4093 82.9747 27.3187 75.0047C27.6596 74.3092 27.3555 73.6922 26.9129 73.0496C25.3716 70.812 25.2756 68.3728 25.1371 67.4148C24.6154 63.8072 23.527 62.8508 21.7592 58.2476C21.5335 57.6594 21.888 57.3801 22.0329 57.5498C22.6235 58.2468 22.1153 57.4994 23.9263 60.4852C25.7886 63.5551 25.6541 63.5719 26.8961 62.9965C28.0101 62.4803 26.1511 56.547 26.8633 54.1294C26.9466 53.8485 27.0218 53.8285 27.2643 53.9717C28.259 54.5583 28.0397 59.3744 28.7656 61.4143C28.8936 61.7745 29.2706 61.8705 29.6403 61.8393C29.8892 61.8185 30.1309 61.7104 30.3741 61.6352C30.5534 61.58 30.679 61.4607 30.7335 61.2791C31.2664 59.4977 31.9203 52.3952 32.851 52.7361C33.7841 53.0778 33.1135 56.5054 32.7606 60.6821C32.5805 62.8156 32.5125 62.8788 34.0642 63.1493C34.5836 63.2398 34.7628 61.8505 37.8903 55.6051C38.2416 54.9033 38.761 54.6528 38.7554 55.4386C38.745 56.9008 36.0857 61.6688 36.1505 65.0684C36.1521 65.1708 36.1417 65.0708 36.5066 67.1876C36.5987 67.7189 36.3138 67.1379 34.1338 68.9722C33.0839 69.8557 33.1263 70.6336 33.568 70.3583C34.0434 70.063 34.5308 69.7821 34.9757 69.4459C37.7743 67.3324 38.5329 68.6825 39.2116 67.3196C40.2527 65.2285 40.5496 64.8539 41.6548 63.4999C41.6932 63.4526 41.7925 63.4542 41.8629 63.4334C41.9981 63.9 41.1106 65.5902 40.5184 67.2124C37.8599 74.4917 34.9269 74.0235 34.0274 76.6285C33.0775 79.3798 32.5005 80.7427 31.0368 88.2533C31.032 88.2757 28.2534 103.239 28.2446 103.551C28.2278 104.122 28.6599 104.282 28.908 103.697C29.2682 102.846 30.0532 99.2932 30.2037 98.6114C31.068 94.6908 31.1824 91.5689 31.6682 91.1712C36.4602 87.2466 50.6987 82.9483 56.6936 81.1036C57.245 80.934 56.9097 81.2533 57.8836 82.6898C63.1758 90.4957 68.0175 92.7229 73.2104 95.2206C73.6665 95.4398 74.434 95.7648 75.2063 95.2822C76.722 94.3347 80.1048 91.2296 82.7128 89.108C89.3167 83.7374 89.1999 81.1853 89.8601 81.4045C95.847 83.3892 100.904 85.2435 105.955 87.9876L106.806 87.1914L106.807 87.1922ZM88.2083 47.4967C91.6903 49.174 90.9917 57.7602 91.3014 57.7923C91.0829 59.7449 91.2254 60.8325 89.5952 61.3703C89.3207 61.4607 89.8817 61.2375 89.1639 54.9128C88.8454 52.1055 88.9438 50.809 88.358 48.7715C88.1035 47.8872 87.4769 47.1445 88.2083 47.4967ZM85.7107 47.259C87.2528 47.3222 87.7042 48.7587 88.4532 58.8158C88.49 59.3144 88.4308 59.8266 88.478 59.8266C88.478 61.7168 88.4868 61.6128 85.95 62.2394C85.8091 62.2738 85.7731 62.2146 85.7779 62.101C86.4789 46.1058 82.7136 47.1365 85.7107 47.259ZM51.1749 64.9804C50.0305 61.9577 48.0058 54.4167 50.8372 53.3451C50.8436 53.5076 50.8628 53.3499 50.7563 53.9477C50.3042 56.4886 53.6509 67.1211 53.6517 67.1403C52.2288 67.0923 51.7511 66.5033 51.1749 64.9804ZM56.0278 66.9755C54.3016 67.2244 54.1887 65.5022 53.2012 61.4151C51.1925 53.0986 51.0981 52.8641 54.1311 52.1375C54.6321 52.0174 54.4696 52.0022 54.6417 53.1634C55.9893 62.2514 56.9113 63.5663 57.7291 66.5529C57.8204 66.8867 57.7003 66.7338 56.0278 66.9755ZM88.3828 81.1933C83.5715 87.2002 80.6417 89.8627 74.458 94.4443C74.2932 94.5667 74.1579 94.586 73.9754 94.4995C65.7431 90.6294 63.0686 87.95 58.9368 82.4145C57.6483 80.6883 57.7035 80.8283 58.1293 80.7219C61.8762 79.7824 63.7544 79.7399 64.0273 79.3198C64.4659 78.6468 65.054 77.3007 65.2709 76.7341C65.4397 76.2923 65.5206 75.8162 65.6246 75.352C65.6895 75.0615 65.5918 74.8326 65.3414 74.6446C59.5418 70.2998 58.2261 65.5486 55.8749 55.1817C54.6417 49.7422 55.7333 46.4091 57.9652 43.6665C59.2489 42.09 60.17 41.208 61.8193 40.1677C62.9125 39.4778 63.0005 39.2818 63.2991 39.365C65.3381 39.9332 67.9527 39.0313 69.7917 37.9829C70.4983 37.5804 73.0543 37.9645 73.8378 38.1822C80.2072 39.9508 82.8777 44.3435 84.1205 50.0704C85.5682 56.7399 84.7728 60.8469 84.3566 64.5138C83.7068 70.2326 82.8793 71.0489 83.1954 75.2336C83.4971 79.2286 84.3222 79.399 86.1676 80.1089C88.4324 80.9804 88.6741 80.8291 88.382 81.1925L88.3828 81.1933Z" fill="black"/>
<path d="M41.0748 88.8198C34.8415 90.5268 33.2641 98.4392 38.3755 102.213C42.5545 105.299 48.8039 103.391 50.454 98.5873C52.5564 92.4667 46.9897 87.2001 41.0748 88.8198ZM43.9414 102.703C34.8455 103.427 33.3386 91.4544 41.671 89.5201C44.596 88.8406 48.2013 90.1803 49.6922 93.7576C51.388 97.8254 48.1869 102.365 43.9414 102.703Z" fill="black"/>
<path d="M89.986 87.2849C86.2616 87.8195 83.2125 91.2639 83.5046 95.4365C84.0208 102.814 94.057 104.921 97.9352 98.624C101.168 93.375 97.2013 86.2493 89.986 87.2849ZM92.8886 101.208C88.0254 102.392 83.7863 98.2895 84.3361 94.0128C84.8571 89.9554 88.8496 87.2985 92.8046 88.1724C100.085 89.7809 100.047 99.4659 92.8886 101.208Z" fill="black"/>
<path d="M116.697 89.8783C112.342 82.8222 100.836 87.0061 102.374 95.4082C103.947 103.998 117.423 103.625 117.815 93.6732C117.695 92.564 117.663 91.4452 116.697 89.8783ZM111.079 100.489C106.902 101.205 102.952 97.6858 103.03 94.1862C103.195 86.8044 112.67 84.7037 116.085 90.5185C118.647 94.88 115.768 99.6857 111.079 100.489Z" fill="black"/>
<path d="M37.1638 96.4946C37.2255 97.6134 37.2815 98.3904 38.3418 98.7666C39.4574 99.1627 41.0812 98.7938 41.4149 97.7046C41.6846 96.8251 41.17 96.6114 41.6094 96.4234C41.9583 96.2737 42.3928 96.0336 43.5132 96.008C44.8921 96.1649 45.0601 96.0896 45.0625 96.6114C45.0665 97.4453 44.9185 97.8719 45.5371 98.2576C46.1029 98.6105 47.1369 98.7218 48.21 98.2392C49.2912 97.7534 49.869 95.4598 48.1428 94.1746C44.3471 91.348 36.995 93.4351 37.1646 96.4938L37.1638 96.4946ZM48.4293 96.5586C48.2949 97.5045 47.2809 97.5245 46.3886 97.4773C45.3242 97.4213 47.4298 95.1461 43.4932 95.0821C42.6737 95.0685 41.1444 95.3286 40.6722 96.0848C40.4922 96.3729 40.541 96.9283 40.5554 97.2548C40.5882 98.0207 39.3246 98.0511 38.5987 97.8062C38.0049 97.6062 37.5856 96.6194 38.3794 95.2894C38.4411 95.1861 39.4646 94.3826 40.104 94.2066C41.5493 93.8096 42.8314 93.5711 45.125 93.7624C46.7831 93.9009 48.6614 94.9228 48.4293 96.5586Z" fill="black"/>
<path d="M94.5023 93.5585C94.1526 93.4289 93.8781 93.9194 93.8925 94.1827C93.9797 95.7793 94.0197 95.2767 93.8341 96.2131C93.5476 97.66 91.3884 97.2014 90.845 97.331C90.2953 97.4623 89.8079 97.2966 89.3117 97.1214C88.1417 96.7084 88.5603 93.9395 88.1017 93.769C87.7856 93.6522 87.4575 93.901 87.4679 94.2644C87.4735 94.47 87.5175 94.6749 87.5415 94.8798C87.7616 96.8005 87.6287 98.1521 90.3849 98.3234C90.7042 98.3434 90.7066 98.3074 90.7186 98.5971C90.733 98.9516 90.8034 99.1373 90.5433 99.1365C89.8471 99.1341 89.4102 99.0853 88.846 99.3117C88.5979 99.411 88.5451 99.8439 88.8716 99.932C89.2581 100.036 89.1669 100.014 91.2628 100.014C91.2628 99.9192 93.3547 100.191 93.8213 99.8367C94.2278 99.5278 93.8085 99.1125 93.3995 99.1189C92.6825 99.1309 91.999 99.1477 91.9926 99.0532C91.9406 98.2602 91.991 98.2866 92.1439 98.2514C94.1886 97.7832 95.0065 97.4903 94.7824 93.9154C94.7712 93.7306 94.6528 93.6129 94.5039 93.5577L94.5023 93.5585Z" fill="black"/>
<path d="M90.3207 96.588C94.1844 97.8109 92.8648 93.2165 93.1537 93.2156C93.1537 91.367 93.2001 91.2478 92.948 90.4091C92.6431 89.3951 91.1194 89.107 90.3279 89.5248C89.2843 90.0753 89.3276 90.774 89.306 93.6942C89.2955 95.1275 89.2579 96.2519 90.3215 96.5888L90.3207 96.588ZM90.8945 90.1922C92.2294 89.9825 92.1965 90.7444 92.3846 92.7619C92.223 95.6541 92.3862 95.8182 91.3058 95.8486C89.7709 95.8918 90.4071 95.1099 90.1542 92.4306C90.075 91.5935 90.0638 90.3226 90.8945 90.1922Z" fill="black"/>
<path d="M115.201 91.786C114.754 91.3595 114.38 91.7996 113.194 92.7007C112.806 92.9952 113.13 91.9437 112.225 91.6228C112.087 91.5731 112.171 91.4963 112.199 91.4379C112.414 90.9841 112.543 90.5368 112.421 90.0126C111.82 87.4181 108.124 88.9058 109.215 91.301C109.306 91.5003 109.298 91.5035 109.104 91.5275C108.61 91.5883 108.604 91.5859 108.754 91.1218C109.042 90.2311 108.603 89.2171 107.537 88.9298C106.526 88.6577 105.463 89.5628 105.442 90.6896C105.424 91.6716 106.119 91.77 105.675 91.9437C105.327 92.0797 105.055 92.2494 104.984 92.6135C104.761 93.7587 104.931 96.2164 105.098 96.6589C105.242 97.0383 105.488 97.3488 105.909 97.3888C106.67 97.4616 107.431 97.5809 108.201 97.4224C108.545 97.3512 112.692 97.7993 112.889 96.8294C113.129 95.6506 113.065 95.7226 113.316 95.8546C115.763 97.1407 115.481 97.1807 115.481 94.4518C115.501 94.4518 115.581 92.1501 115.201 91.786ZM110.755 89.3051C111.243 89.3003 111.721 89.7965 111.724 90.3119C111.727 90.8121 111.266 91.3171 110.798 91.2874C109.216 91.1866 109.745 89.3156 110.755 89.3051ZM108.025 90.5808C108.041 91.6036 106.219 91.8348 106.218 90.56C106.218 89.3348 108.004 89.2275 108.025 90.5808ZM112.122 95.4657C112.106 96.3444 112.191 96.3476 111.531 96.4797C111.316 96.5229 107.179 96.5973 106.311 96.5253C105.792 96.4821 105.797 95.6986 105.757 94.6926C105.687 92.9176 105.668 92.7592 106.205 92.5791C106.966 92.3238 109.587 92.3654 109.587 92.3846C112.146 92.3846 111.936 92.2902 112.079 92.8016C112.312 93.6395 112.153 93.7627 112.122 95.4649V95.4657ZM114.714 94.7022C114.714 95.8915 114.917 95.8338 113.451 95.0368C113.085 94.8375 113.031 94.6614 113.043 94.2301C113.053 93.8707 113.177 93.6395 113.482 93.4538C114.195 93.0193 114.576 92.4262 114.613 92.9864C114.728 94.7006 114.745 94.6998 114.714 94.7022Z" fill="black"/>
<path d="M139.226 5.41644C133.614 1.20937 123.276 0.0993775 116.447 1.55509C98.2027 5.44605 96.1548 27.0288 110.023 34.0585C111.5 34.8075 111.57 34.7035 111.473 34.9612C110.993 36.2424 108.673 41.4963 107.715 42.7071C106.003 44.8695 114.77 43.3905 120.099 37.0659C120.619 36.4481 123.639 36.8907 124.679 36.9803C130.102 36.6066 129.998 36.6306 132.352 35.984C146.489 32.1026 151.068 14.2924 139.226 5.41564L139.226 5.41644ZM132.373 34.3386C128.92 35.2517 130.254 35.1189 126.17 35.5526C120.754 36.128 120.715 35.1429 119.655 36.144C117.172 38.4864 116.333 39.1331 112.974 40.9273C111.863 41.5211 109.858 42.2766 109.227 42.283C109.434 41.7684 109.896 41.6075 111.728 37.2444C113.238 33.6479 112.795 34.349 110.528 32.8637C107.658 30.983 105.288 29.2776 103.576 25.4211C100.259 17.952 102.664 4.18001 120.673 2.7267C121.646 2.64827 122.621 2.61066 123.596 2.55464C123.603 2.75631 125.893 2.449 128.651 3.03641C130.156 3.35652 129.413 3.0156 131.088 3.47496C133.172 4.04636 136.04 4.71299 138.941 7.14585C149.227 15.7769 144.769 31.0614 132.374 34.3394L132.373 34.3386Z" fill="black"/>
<path d="M123.049 17.957C121.681 17.9514 120.84 19.2663 120.852 20.2418C120.883 23.1141 125.193 23.2653 125.271 20.0962C125.302 18.8174 124.307 17.9619 123.05 17.957H123.049Z" fill="black"/>
<path d="M114.534 17.8344C113.316 17.7695 112.284 19.0724 112.269 20.1176C112.252 21.2612 113.271 22.3415 114.417 22.2903C117.08 22.4712 117.761 18.0064 114.535 17.8344H114.534Z" fill="black"/>
<path d="M131.304 17.7268C130.125 17.6196 129.127 18.9496 129.128 20.0108C129.129 21.1672 130.169 22.1748 131.306 22.178C134.104 22.1844 134.498 17.674 131.303 17.7276L131.304 17.7268Z" fill="black"/>
</svg>
