<svg width="286" height="122" viewBox="0 0 286 122" fill="none" xmlns="http://www.w3.org/2000/svg">
<path fill-rule="evenodd" clip-rule="evenodd" d="M155.075 28.899C154.745 29.4632 154.299 29.9513 153.768 30.3311C153.236 30.711 152.63 30.974 151.989 31.1029C151.969 31.0979 151.949 31.0974 151.929 31.1015C151.909 31.1057 151.891 31.1143 151.875 31.1267C151.858 31.1391 151.846 31.1551 151.837 31.1733C151.828 31.1915 151.823 31.2115 151.823 31.2318C151.823 31.2521 151.828 31.2721 151.837 31.2903C151.846 31.3085 151.858 31.3245 151.875 31.3369C151.891 31.3494 151.909 31.358 151.929 31.3621C151.949 31.3662 151.969 31.3657 151.989 31.3607C153.453 31.7433 155.357 30.4126 155.357 28.9489C155.364 28.9115 155.355 28.8729 155.334 28.8417C155.312 28.8105 155.278 28.7892 155.241 28.7826C155.203 28.776 155.165 28.7846 155.134 28.8064C155.102 28.8282 155.081 28.8616 155.075 28.899ZM148.28 21.4558V22.2875C148.28 22.3978 148.324 22.5035 148.402 22.5815C148.48 22.6595 148.586 22.7033 148.696 22.7033C148.805 22.7012 148.91 22.6567 148.987 22.5792C149.065 22.5016 149.109 22.3971 149.112 22.2875V21.4558C149.112 21.3455 149.068 21.2398 148.99 21.1618C148.912 21.0838 148.806 21.04 148.696 21.04C148.586 21.04 148.48 21.0838 148.402 21.1618C148.324 21.2398 148.28 21.3455 148.28 21.4558ZM156.571 22.2459C156.571 22.3562 156.615 22.4619 156.693 22.5399C156.771 22.6179 156.877 22.6617 156.987 22.6617C157.098 22.6617 157.203 22.6179 157.281 22.5399C157.359 22.4619 157.403 22.3562 157.403 22.2459V21.2147C157.403 21.1044 157.359 20.9986 157.281 20.9206C157.203 20.8426 157.098 20.7988 156.987 20.7988C156.877 20.7988 156.771 20.8426 156.693 20.9206C156.615 20.9986 156.571 21.1044 156.571 21.2147C156.538 21.5723 156.571 21.9881 156.571 22.2459Z" fill="black"/>
<path d="M107.893 96.4151C108.297 96.0867 108.587 95.642 108.72 95.1437C108.853 94.6455 108.823 94.1189 108.634 93.6382C108.548 92.9447 108.223 92.3007 107.714 91.812C107.205 91.3233 106.541 91.0192 105.833 90.9497C105.124 90.8802 104.412 91.0494 103.814 91.4295C103.216 91.8096 102.768 92.378 102.544 93.041C101.245 92.2149 99.8338 91.3391 98.4838 90.503C99.4988 89.1792 102.483 89.7665 102.787 90.8514C102.794 90.8936 102.818 90.9315 102.853 90.9567C102.888 90.9819 102.932 90.9923 102.975 90.9857C103.018 90.9791 103.057 90.956 103.083 90.9215C103.108 90.887 103.119 90.8438 103.112 90.8016C102.96 89.0698 99.2856 88.0546 97.8037 90.0949C96.4944 89.3087 94.8704 88.3531 93.5103 87.6266C94.6775 86.6313 97.2861 87.1886 97.5703 88.2238C97.5836 88.2592 97.6094 88.2888 97.6429 88.3073C97.6765 88.3258 97.7157 88.332 97.7535 88.3249C97.7913 88.3177 97.8252 88.2976 97.8493 88.2681C97.8734 88.2387 97.886 88.2018 97.8849 88.164C97.753 86.5517 94.3527 85.4668 92.8099 87.2384C92.1635 86.8832 91.4837 86.5899 90.7799 86.3625C90.6513 86.3102 90.5101 86.2956 90.3732 86.3203C90.2363 86.345 90.1096 86.4081 90.0085 86.5019C87.4405 89.6371 78.7825 97.7787 74.7834 98.7242C74.6829 98.7391 74.5881 98.7796 74.5087 98.8418C74.4292 98.904 74.3678 98.9857 74.3308 99.0785C74.2938 99.1713 74.2823 99.2721 74.2976 99.3707C74.3129 99.4692 74.3545 99.5621 74.418 99.6399C75.2962 100.514 76.3019 101.255 77.4021 101.84C76.3871 102.835 75.5954 103.731 75.0067 104.378C74.7022 104.696 74.5398 110.787 74.8037 112.131C74.843 112.263 74.9296 112.376 75.0473 112.449C76.3262 113.305 92.7998 120.292 94.4847 119.357C95.6113 118.73 109.06 105.005 109.273 104.587C109.598 103.93 109.486 99.5503 109.466 97.7986C109.385 97.2711 108.38 96.7038 107.893 96.4151ZM75.4127 109.563V107.344C79.625 109.334 89.2675 113.395 92.9216 114.53C93.8554 114.828 93.9366 114.788 94.4238 114.53C97.215 112.778 107.071 101.889 108.877 100.227V102.327C103.396 107.712 94.0888 117.147 93.9163 116.61C92.9114 116.55 76.2856 109.961 75.4127 109.563ZM107.639 93.0609C108.004 93.6638 108.2 94.3505 108.208 95.0516C108.204 95.2746 108.148 95.4939 108.044 95.6924C107.94 95.8909 107.791 96.0632 107.609 96.1961C106.756 95.6388 105.142 94.6037 103.234 93.3894C104.279 91.3689 106.604 91.3391 107.599 93.0609H107.639ZM75.159 99.4309C79.4829 98.1768 87.6943 90.4134 90.4551 87.0493C91.1196 87.2306 91.76 87.4879 92.3633 87.8157C91.3483 89.6669 92.4344 91.6974 92.8201 91.4087C93.0332 91.2495 92.6475 91.1898 92.5866 90.2144C92.5607 89.5018 92.7251 88.795 93.0637 88.164C94.4644 88.8807 96.1087 89.8162 97.4992 90.6025C96.6466 92.4638 97.6718 94.3051 98.027 94.0363C98.3823 93.7676 97.8646 93.8273 97.8037 92.8519C97.779 92.2123 97.904 91.5756 98.1691 90.9907C99.6003 91.8168 101.062 92.6728 102.402 93.479C102.195 93.9749 102.113 94.5122 102.163 95.0457C102.212 95.5792 102.392 96.0932 102.686 96.5445C102.699 96.5615 102.716 96.5757 102.735 96.5864C102.754 96.5971 102.775 96.6041 102.796 96.6068C102.818 96.6096 102.84 96.6082 102.861 96.6026C102.882 96.597 102.902 96.5874 102.919 96.5744C102.937 96.5613 102.951 96.545 102.962 96.5264C102.973 96.5078 102.98 96.4874 102.983 96.4661C102.986 96.4448 102.984 96.4232 102.979 96.4025C102.973 96.3818 102.963 96.3624 102.95 96.3455C102.767 95.95 102.677 95.5197 102.686 95.0857C102.695 94.6518 102.802 94.2253 103.001 93.8373C105.366 95.2506 107.274 96.435 107.862 96.8232C107.751 96.9227 97.1643 106.159 93.561 108.906C91.196 108.299 78.7825 102.258 75.159 99.4309ZM75.5447 104.975C80.1427 106.965 90.5871 111.584 92.9926 112.031C93.4088 112.111 93.5712 112.141 94.3629 111.524C97.7428 108.866 108.735 97.5896 108.837 97.709C108.842 97.7387 108.842 97.7689 108.837 97.7986V99.7892C106.573 101.571 93.9873 114.53 93.7843 113.913C92.7693 113.913 76.2755 107.314 75.433 106.945C75.4127 106.527 75.5041 105.413 75.5447 104.975ZM94.0279 118.69C93.0129 119.257 77.5544 113.096 75.4838 111.842C75.406 111.208 75.3687 110.57 75.3721 109.931C79.8178 112.081 92.749 117.436 93.9366 117.386C95.6722 117.297 107.944 103.751 108.817 102.805C108.827 103.313 108.776 103.821 108.664 104.318C108.492 104.646 94.6978 118.322 94.0279 118.69Z" fill="black"/>
<path d="M195.382 27.0733C194.052 32.5375 193.078 37.1757 192.916 38.1013C192.808 38.504 192.787 38.9244 192.855 39.3355C193.393 40.4602 200.345 42.6797 201.228 42.2418C202.112 41.8038 204.405 36.7377 207.075 31.5124C208.71 31.5636 210.347 31.4469 211.957 31.164C213.653 30.859 215.303 30.3474 216.87 29.6412C220.3 28.0885 224.056 21.4399 224.563 18.0957C224.944 14.4649 224.16 10.8081 222.32 7.63503C213.804 -6.84666 188.825 0.946578 190.855 17.0307C191.435 20.7111 192.997 24.1757 195.382 27.0733ZM201.574 38.9274C201.574 39.0866 201.391 39.0667 200.559 38.9274C198.856 38.7176 197.208 38.2013 195.697 37.4046C194.986 37.0264 194.793 36.9467 194.864 36.7775C194.935 36.6083 195.088 36.6681 196.184 36.9666C196.285 36.9666 199.432 37.962 200.335 38.2705C201.503 38.7881 201.574 38.7881 201.574 38.9274ZM201.391 22.7338C202.475 22.7889 203.555 22.5695 204.527 22.0968C205.431 22.5261 206.409 22.7861 207.41 22.8632C205.705 25.9785 202.243 32.3285 201.127 35.7126L196.823 34.5481C197.838 32.0996 200.082 26.3667 201.371 22.7338H201.391ZM201.036 21.9077C200.278 21.7954 199.579 21.4426 199.045 20.9032C198.512 20.3639 198.173 19.6678 198.082 18.9218C197.798 16.9312 199.097 14.7017 201.056 15.2292C202.284 15.5576 202.436 16.5131 202.223 17.7175C202.04 18.5933 201.381 20.7929 201.015 21.8679L201.036 21.9077ZM203.796 19.519C203.905 18.8677 204.154 18.2467 204.527 17.6976C204.705 17.3982 204.964 17.1537 205.277 16.9919C205.589 16.83 205.941 16.7572 206.293 16.7819C207.044 17.0008 207.369 18.3943 206.75 19.2701C206.155 20.0445 205.414 20.6999 204.568 21.201C204.277 21.0334 204.045 20.7824 203.903 20.4817C203.762 20.181 203.717 19.8451 203.776 19.519H203.796ZM194.469 6.86864C199.016 1.50395 207.572 -0.626001 213.754 1.58357C217.112 2.71388 219.936 5.00251 221.701 8.02319C223.451 11.0425 224.2 14.521 223.843 17.9762C223.376 21.0716 219.783 27.5013 216.626 28.9246C213.74 30.2155 210.591 30.8419 207.42 30.7559C207.075 30.7559 206.709 30.7559 206.578 30.9948C205.979 32.1892 204.882 34.4983 203.807 36.6681C203.064 36.3163 202.293 36.0234 201.503 35.7922C202.68 32.4878 206.395 25.9984 208.161 22.8532C209.691 22.9818 211.229 22.7213 212.627 22.0968C213.005 21.9019 213.318 21.6054 213.529 21.2422C213.741 20.8789 213.843 20.464 213.823 20.046C213.803 19.628 213.661 19.2244 213.415 18.8825C213.169 18.5405 212.829 18.2745 212.434 18.1156C210.861 17.3591 209.45 19.1706 208.628 20.6934C208.405 21.0915 208.151 21.5593 207.867 22.0868C207.046 22.0339 206.236 21.8698 205.461 21.5991C206.233 21.0672 206.918 20.4228 207.491 19.6882C207.812 19.2123 207.975 18.6503 207.957 18.0798C207.939 17.5094 207.741 16.9585 207.39 16.5032C207.114 16.1892 206.731 15.9846 206.312 15.9278C205.894 15.871 205.468 15.9659 205.116 16.1946C204.405 16.6229 203.835 17.2433 203.475 17.9813C203.115 18.7193 202.98 19.5435 203.086 20.355C203.196 20.8131 203.448 21.2267 203.807 21.5394C203.141 21.8098 202.426 21.9452 201.706 21.9375C202.112 20.7631 202.771 18.6431 202.944 17.7772C203.052 17.2835 203.076 16.7756 203.015 16.2743C202.936 15.8439 202.733 15.4448 202.428 15.1253C202.124 14.8057 201.732 14.5791 201.3 14.4728C198.833 13.786 197.016 16.4634 197.371 18.9616C197.472 19.8569 197.864 20.6966 198.489 21.3563C199.114 22.0161 199.94 22.4607 200.843 22.6243C199.544 26.2074 197.514 31.9901 196.499 34.4585L194.266 33.8912C195.697 26.8444 195.869 27.0136 195.666 26.924C193.36 24.0406 191.884 20.6036 191.393 16.971C191.154 15.1697 191.304 13.3393 191.834 11.5987C192.364 9.85816 193.261 8.24651 194.469 6.86864ZM208.557 22.1466C209.267 20.8825 210.688 18.1156 212.069 18.7924C212.345 18.9015 212.585 19.0824 212.764 19.3157C212.943 19.549 213.054 19.8258 213.084 20.1161C213.063 21.8679 210.282 22.1764 208.516 22.1466H208.557ZM247.411 26.5359C248.634 25.8305 250.079 25.5896 251.471 25.859C253 25.8859 254.461 26.4855 255.554 27.5348C256.647 28.5842 257.289 30.0038 257.348 31.5024C256.429 30.9792 255.353 30.7824 254.303 30.9451C251.755 31.164 248.426 32.5176 248.873 34.9263C249.238 36.9169 251.918 36.6482 253.948 36.1107C255.978 35.5732 257.592 34.5978 258.008 32.6769C260.474 34.4386 261.053 37.524 261.154 40.5398C261.154 40.582 261.171 40.6225 261.202 40.6524C261.232 40.6823 261.274 40.699 261.317 40.699C261.36 40.699 261.401 40.6823 261.432 40.6524C261.462 40.6225 261.479 40.582 261.479 40.5398C261.55 37.1657 260.931 33.8613 258.119 31.9404C258.148 31.0762 257.998 30.2153 257.678 29.4097C257.358 28.6042 256.874 27.8707 256.256 27.2538C255.639 26.6369 254.9 26.1493 254.084 25.8206C253.269 25.4919 252.393 25.3289 251.512 25.3415C250.103 25.1397 248.666 25.4285 247.452 26.1576C247.076 26.3368 247.249 26.6055 247.411 26.5359ZM256.668 33.6722C255.521 35.1452 252.273 35.9116 250.771 35.6628C250.213 35.5732 249.756 35.3443 249.634 34.777C249.269 32.7864 252.77 31.7015 254.861 31.6318C255.713 31.5678 256.562 31.7812 257.277 32.2389C257.2 32.7593 256.991 33.2523 256.668 33.6722ZM242.762 14.9007C243.849 13.5869 243.118 11.2977 240.083 11.2878C238.905 11.2878 238.337 12.4623 238.418 13.5869C238.601 16.2643 241.676 16.1847 242.762 14.9007ZM239.129 13.5372C239.129 12.8803 239.443 12.0243 240.144 12.0343C241.778 12.0343 242.529 12.7808 242.529 13.6069C242.488 15.488 238.997 16.4634 239.129 13.5372Z" fill="black"/>
<path d="M275.248 85.34C275.315 85.2165 275.344 85.0764 275.334 84.9364C275.334 82.9916 272.545 61.4029 271.554 59.6782C271.476 59.5511 271.367 59.4467 271.235 59.3759C271.104 59.305 270.957 59.27 270.808 59.2746C266.71 58.7731 232.144 65.5249 229.869 67.1028C229.551 67.323 229.6 67.8734 229.637 68.4605C229.832 71.6774 233.306 92.838 234.529 92.7157C234.664 92.7157 234.615 92.6178 234.297 93.2661C232.389 97.1924 228.768 109.766 228.842 112.298C228.842 113.363 229.086 114.745 230.138 114.671C237.685 113.742 274.685 107.871 285.327 105.681C285.743 105.596 286.012 105.216 286 104.593C285.874 103.553 285.559 102.546 285.07 101.62C283.578 98.8192 277.389 87.7252 275.248 85.34ZM234.603 92.3365C233.649 91.1133 230.138 70.0384 230.407 67.7021C233.098 66.3077 267.2 59.7149 270.771 60.2531C271.75 62.9441 274.282 82.38 274.441 84.7162C270.111 86.2085 240.131 91.0522 234.603 92.3365ZM235.141 92.7034C236.168 92.4466 271.163 86.5877 274.367 85.7437C276.117 87.3705 284.018 101.425 284.532 102.623C277.511 103.846 235.862 110.806 229.734 111.736C229.82 108.03 233.624 95.0764 235.141 92.7034Z" fill="black"/>
<path d="M22.9657 68.8124C22.5087 69.8444 22.1245 70.907 21.8159 71.9926C21.7977 72.1668 21.8457 72.3415 21.9504 72.4819C23.1858 74.3411 35.8455 88.6153 39.148 90.6213C39.6006 90.9026 40.1388 91.0983 40.469 90.6947C42.8681 87.7095 45.999 85.3961 49.5571 83.9795C52.4531 82.9549 55.4893 82.3815 58.5595 82.2794C61.0058 82.0592 61.4339 81.8146 62.3758 80.2122C63.4867 78.1035 64.9608 76.2071 66.7302 74.6102C68.9863 72.6375 71.4905 70.968 74.1792 69.6441C74.3002 69.5756 74.3949 69.4685 74.4481 69.34C74.5012 69.2114 74.5099 69.0688 74.4728 68.9347C74.0593 67.8826 73.5125 66.8878 72.846 65.9747C73.2863 65.8279 73.7756 65.6934 73.7756 65.253C73.7756 64.0299 63.1096 48.5936 60.1496 45.6825C59.8438 45.3767 59.4035 44.9731 58.9998 44.9976C52.8841 45.34 46.9273 51.1133 43.478 56.1527C39.5272 56.006 36.9708 55.6512 32.4696 57.5471C29.2919 58.896 26.427 60.8864 24.0543 63.3938C23.6873 63.773 21.1921 66.415 21.1554 66.623C21.1187 66.8309 21.1921 66.8309 22.9657 68.8124ZM71.8919 68.4699C66.7913 69.3384 63.5377 73.5827 61.1404 78.194C60.0762 80.2489 60.1741 80.3468 59.0488 80.3223C57.081 80.2109 55.1071 80.2846 53.1532 80.5425C51.72 80.7567 50.3109 81.109 48.9455 81.5944C45.8387 82.6952 42.2793 86.2179 40.3834 88.8355C40.3431 88.8893 40.2919 88.934 40.2332 88.9667C40.1744 88.9994 40.1094 89.0192 40.0424 89.025C39.9754 89.0308 39.908 89.0223 39.8445 89.0002C39.781 88.9781 39.7229 88.9428 39.674 88.8966C35.6987 84.7991 28.6656 77.6069 25.1306 73.4726C24.9594 73.2892 25.253 73.0201 25.4242 73.2158C27.7115 75.6621 33.6194 81.521 39.9553 87.8936C42.0958 85.166 45.3983 81.8635 48.6642 80.7137C50.445 80.0785 52.2981 79.6676 54.1806 79.4906C55.9435 79.3567 57.714 79.3567 59.4769 79.4906C60.1985 78.6588 63.7702 69.216 71.8674 68.1641C71.8912 68.1815 71.9106 68.204 71.9244 68.23C71.9382 68.256 71.946 68.2847 71.9472 68.3141C71.9484 68.3435 71.9429 68.3727 71.9312 68.3997C71.9195 68.4267 71.9019 68.4507 71.8797 68.4699H71.8919ZM58.9876 45.9883C61.4339 47.7007 71.3904 62.4398 72.687 65.0206C70.4372 65.7335 68.2652 66.6719 66.2042 67.8216C64.2525 68.8 62.5437 70.2015 61.2021 71.9239C59.8606 73.6463 58.9202 75.6463 58.4494 77.7781C54.0583 70.6349 47.9303 62.77 43.8572 56.9845C44.1018 56.8255 50.9759 46.4653 58.9876 45.9883ZM32.7387 58.2199C37.2032 56.4218 39.674 56.8377 43.3679 56.9967C47.0374 63.2593 53.6302 72.0905 57.9724 77.876C53.9647 76.9276 49.7473 77.5077 46.1445 79.5028C43.9795 80.7259 41.3375 83.6615 39.7107 85.484C37.3622 83.6004 23.8096 69.1671 21.6324 66.7208C24.9839 62.929 28.0785 60.0791 32.7387 58.1709V58.2199ZM10.3549 89.3247C10.0526 89.1126 9.69522 88.9927 9.32612 88.9797C8.95702 88.9667 8.59207 89.061 8.27555 89.2513C8.04505 89.3541 7.83706 89.5013 7.66345 89.6845C7.48983 89.8677 7.354 90.0833 7.2637 90.319C7.17341 90.5546 7.13041 90.8058 7.13718 91.0581C7.14395 91.3104 7.20034 91.5589 7.30314 91.7894C7.40595 92.0199 7.55314 92.2279 7.73633 92.4015C7.91951 92.5751 8.1351 92.7109 8.37078 92.8012C8.60646 92.8915 8.85761 92.9345 9.10991 92.9278C9.3622 92.921 9.61069 92.8646 9.84119 92.7618C10.2094 92.6813 10.5445 92.4908 10.8019 92.2155C11.0594 91.9402 11.2271 91.5931 11.2828 91.2203C11.3385 90.8476 11.2796 90.4666 11.1139 90.1281C10.9482 89.7896 10.6835 89.5094 10.3549 89.3247ZM9.54764 91.771C8.69143 92.0401 8.1777 91.771 7.96976 91.3552C7.57835 90.4867 8.06762 89.1535 9.3397 89.5449C10.2326 89.8752 10.9543 91.3796 9.54764 91.8322V91.771ZM72.5524 33.3531C72.9071 34.0748 74.5584 33.8057 75.2801 33.5733C75.6592 33.451 75.9039 33.3164 75.9406 32.9495C76.0506 32.0321 76.173 24.0816 75.7571 23.311C75.7141 23.2302 75.6482 23.1639 75.5677 23.1204C75.4872 23.0768 75.3957 23.0581 75.3045 23.0664C73.9995 23.0628 72.7011 23.2524 71.4516 23.629C70.9501 23.9348 72.1121 32.5458 72.5524 33.3531ZM71.7084 23.9226C72.8383 23.7609 73.981 23.7077 75.121 23.7636C75.1944 24.6687 74.9987 32.5091 74.9865 32.6315C74.4697 32.8166 73.918 32.8835 73.3719 32.8272C73.2863 32.5458 73.1395 31.7875 72.9561 30.8334C72.4171 28.5537 72.0006 26.2468 71.7084 23.9226ZM9.16846 79.0013C9.28582 79.0614 9.41578 79.0928 9.54764 79.0928C9.67949 79.0928 9.80946 79.0614 9.92682 79.0013C10.3994 78.7098 10.7742 78.2839 11.0032 77.7781C11.0343 77.6972 11.0439 77.6096 11.031 77.5238C11.0182 77.4381 10.9833 77.3571 10.9298 77.2889C10.3427 76.5917 3.93335 69.1671 3.15053 69.6319C2.18939 70.2541 1.27749 70.9493 0.422891 71.7113C0.388449 71.7421 0.360854 71.7798 0.341891 71.8219C0.322929 71.8641 0.313021 71.9097 0.312807 71.9559C0.288344 72.592 7.40711 78.2919 9.16846 79.0013ZM3.29731 69.9499C4.19021 70.5982 7.19917 74.3166 9.98797 77.6069C9.86799 77.7958 9.71945 77.965 9.54764 78.1084C6.61557 76.2318 3.81608 74.1557 1.16902 71.8948C1.8326 71.198 2.54374 70.5482 3.29731 69.9499ZM22.5131 42.9671C22.7822 38.2213 25.5465 36.0196 28.4332 35.4569C27.6137 38.4659 27.7482 42.38 30.7205 42.8815C32.1393 43.1139 32.8365 42.38 33.864 41.5238C38.2551 37.8543 34.708 34.1849 29.7542 34.4417C31.6011 29.3779 35.87 25.2558 41.5332 25.1213C41.5851 25.1213 41.6349 25.1007 41.6716 25.064C41.7083 25.0273 41.7289 24.9775 41.7289 24.9256C41.7289 24.8737 41.7083 24.8239 41.6716 24.7872C41.6349 24.7505 41.5851 24.7299 41.5332 24.7299C35.4174 24.6075 30.6104 29.0109 28.7145 34.5151C25.4487 35.0778 22.2073 37.5241 22.1217 42.8937C22.1169 42.9194 22.1172 42.9458 22.1225 42.9714C22.1279 42.997 22.1383 43.0213 22.1531 43.0429C22.1678 43.0644 22.1867 43.0829 22.2086 43.0972C22.2305 43.1115 22.255 43.1213 22.2807 43.1261C22.3064 43.1309 22.3328 43.1307 22.3584 43.1253C22.384 43.1199 22.4082 43.1095 22.4298 43.0948C22.4514 43.08 22.4699 43.0611 22.4842 43.0392C22.4984 43.0173 22.5083 42.9928 22.5131 42.9671ZM29.4728 35.3102C31.2954 35.1878 34.0108 35.7505 34.7569 37.4018C35.185 38.3436 34.7569 39.5056 33.2402 40.7777C32.8284 41.1902 32.3587 41.5404 31.8458 41.8174C30.011 42.6002 27.9806 40.3373 29.4728 35.3102Z" fill="black"/>
<path d="M41.3371 105.796C40.421 105.424 39.4604 105.172 38.4792 105.045C37.7626 104.932 36.9192 104.819 36.2069 104.728C36.893 103.765 38.9249 101.326 39.2658 100.731C39.3619 100.571 39.1784 100.345 39.0429 100.211C38.2826 99.4035 36.8143 99.0997 35.6869 98.9261C35.0402 98.822 32.3396 98.4922 31.8808 98.7091C31.3302 98.9695 27.2576 105.045 27.1352 105.969C27.1352 106.126 27.1877 106.186 27.3406 106.243C27.983 106.477 30.8801 106.842 31.5269 106.994C30.6529 108.512 26.7681 113.646 26.388 114.371C26.2962 114.553 26.353 114.662 26.4623 114.696C26.8555 114.851 27.2602 114.976 27.6727 115.07C27.83 115.117 28.1752 114.905 28.6778 114.601C30.9326 113.256 40.6073 106.911 41.3502 106.091C41.3707 106.072 41.3868 106.048 41.3974 106.022C41.408 105.996 41.4128 105.968 41.4116 105.94C41.4103 105.912 41.403 105.885 41.3902 105.86C41.3773 105.835 41.3592 105.813 41.3371 105.796ZM31.9464 111.003C28.232 113.438 26.9779 114.15 26.9342 114.18C27.5329 113.273 31.2516 108.213 31.8896 107.002C31.9007 106.979 31.9064 106.953 31.9063 106.927C31.9062 106.902 31.9002 106.876 31.8889 106.853C31.8776 106.829 31.8612 106.809 31.8409 106.793C31.8206 106.777 31.7969 106.765 31.7716 106.759C31.3346 106.603 28.1534 106.264 27.4018 106C27.4979 105.193 31.4657 99.091 31.9464 98.848C32.427 98.605 37.0896 99.1561 37.9636 99.7767C37.5048 100.666 34.9703 103.782 34.5595 104.507C34.4765 104.654 34.4503 104.798 34.6119 104.837C34.7736 104.876 38.8812 105.353 39.7771 105.644C38.6846 106.551 33.1699 110.188 31.9464 110.986V111.003Z" fill="black"/>
<path fill-rule="evenodd" clip-rule="evenodd" d="M204.923 82.4205C204.869 82.3278 204.791 82.2505 204.699 82.1959C203.983 81.8467 200.091 82.0213 199.285 82.0546C199.426 60.2405 187.933 46.6348 171.25 42.7344C168.189 42.0192 168.181 41.9693 168.098 42.0192L167.532 40.464C169.129 40.4141 170.435 39.1833 171.899 39.4328C173.005 39.6157 173.562 40.5971 174.651 41.0129C176.498 41.7115 179.783 40.6387 180.789 38.8839C181.304 37.9691 180.847 37.021 181.171 36.389C181.754 35.8816 183.408 35.0666 183.883 34.4762C184.856 33.262 184.897 30.5425 184.456 29.0705C183.661 27.4047 182.577 25.8928 181.255 24.6045C179.816 23.2186 178.541 21.6728 177.454 19.9972C176.115 17.3277 176.065 13.6352 174.959 10.8491C173.74 8.33363 171.853 6.20176 169.503 4.68666C167.209 3.066 164.443 2.25016 161.636 2.36637C159.016 2.53269 157.993 3.6471 156.771 4.02966C155.548 4.41221 155.291 4.02965 153.303 4.90288C152.514 5.38374 151.811 5.99379 151.224 6.70755C150.974 6.97368 150.991 6.99031 150.567 7.00694C150.11 6.97259 149.651 6.97259 149.195 7.00694C148.416 7.17976 147.671 7.48045 146.991 7.8968C142.358 10.6745 143.606 16.2632 141.86 20.3715C140.67 23.1658 137.36 25.852 137.078 28.7711C136.977 30.1133 137.266 31.4559 137.909 32.6382C139.93 36.1894 142.833 33.4033 144.338 35.5739C144.812 36.2559 145.169 36.9212 146.051 37.0543C147.174 37.204 148.704 36.3141 149.619 35.6571C149.811 35.8812 150.029 36.0822 150.267 36.2559C151.078 36.8024 151.949 37.2544 152.862 37.6031L150.75 40.5555C146.791 40.1064 140.712 41.3871 136.795 42.593C136.653 41.595 135.423 33.3534 134.491 32.9543C133.202 32.3887 119.671 33.9605 118.848 34.8504C118.241 35.4991 119.33 47.849 120.511 49.6953C120.686 49.978 121.285 49.9863 121.617 49.9947C119.671 51.3253 117.792 52.6726 117.118 53.1632C116.594 51.3502 113.841 41.7614 112.827 40.1896C112.536 39.7322 112.27 39.7405 110.931 40.1896C110.167 36.3817 109.201 32.6173 108.037 28.9125C108.473 28.1945 108.822 27.4266 109.076 26.6254C109.386 25.3565 109.431 24.0372 109.209 22.75C110.224 23.091 116.286 24.7542 117.268 24.2719C117.531 24.0838 117.727 23.8154 117.825 23.5068C118.898 21.1615 120.736 13.1528 120.877 10.6163C120.935 10.2915 120.88 9.95655 120.719 9.66821C119.746 8.6536 106.656 4.88625 105.55 5.38524C104.876 5.69294 103.055 11.6725 102.864 12.3794C101.275 17.7102 102.082 16.5376 101.2 16.8453C100.186 17.2029 99.3126 19.3402 98.9549 20.3299C98.5973 21.3196 98.2231 22.6502 98.6472 23.4319C98.475 23.7499 98.4057 24.1134 98.4489 24.4724C98.4921 24.8314 98.6457 25.1682 98.8884 25.4362C98.624 25.731 98.4515 26.0968 98.3924 26.4884C98.3333 26.88 98.3901 27.2803 98.5558 27.6401C98.7969 28.3968 100.302 28.8958 101.051 29.1121C100.46 30.7045 99.9681 32.3321 99.5787 33.9855C98.9153 36.5511 98.3851 39.1493 97.9902 41.7697C97.7442 43.0431 97.6632 44.3428 97.7491 45.6368L96.3852 46.2523C96.3327 46.2763 96.2883 46.315 96.2573 46.3637C96.2263 46.4124 96.2101 46.469 96.2105 46.5267C96.2105 46.5267 96.4683 56.6062 99.7866 64.9809C103.795 75.1187 110.39 78.5118 120.428 74.7195C120.519 75.5153 120.714 76.2955 121.01 77.0398C121.16 77.3059 121.667 77.3558 122.008 77.389C124.961 77.4857 127.916 77.3941 130.857 77.1146L133.352 92.9159C132.678 94.8619 125.035 117.034 125.143 119.096C125.143 119.312 125.227 119.479 125.584 119.645C127.788 120.668 148.671 123.396 149.461 121.117C149.66 120.56 150.143 117.009 150.234 116.335L161.985 115.038L173.188 115.778C173.308 116.899 173.508 118.011 173.786 119.104C173.886 119.354 174.003 119.487 174.294 119.462C175.4 119.354 181.296 118.289 182.926 117.982C189.18 116.801 189.039 116.701 188.856 116.085C188.415 114.63 184.323 103.278 182.727 97.9806C185.062 98.2298 187.418 98.2298 189.754 97.9806C189.779 98.0706 189.827 98.1529 189.892 98.2197C189.958 98.2866 190.039 98.3359 190.128 98.3631C191.65 98.9203 205.247 98.1469 206.362 97.0325C207.368 96.1426 205.68 83.6846 204.923 82.4205ZM105.567 5.74284C105.658 5.60146 105.625 5.54325 106.357 5.65136C109.409 6.08382 119.388 9.30228 120.253 10.0591C120.42 11.9635 117.95 22.4173 116.977 23.6814C116.27 23.9226 111.579 22.725 110.856 22.5338C105.35 21.095 105.567 20.8705 104.311 20.5794C103.662 20.3548 103.596 20.3465 103.612 20.255C103.614 20.2345 103.624 20.2154 103.639 20.2015C103.655 20.1877 103.675 20.1801 103.695 20.1802C104.444 20.1802 106.448 20.122 106.939 19.5398C107.047 19.4214 107.128 19.2806 107.175 19.1274C107.223 18.9741 107.236 18.8123 107.214 18.6534C107.192 18.4945 107.135 18.3424 107.047 18.2081C106.959 18.0739 106.843 17.9606 106.706 17.8765C105.637 17.4483 104.52 17.1523 103.379 16.995C103.038 16.9285 102.622 16.812 102.207 16.7621C102.781 14.1674 104.677 7.12337 105.567 5.74284ZM98.4227 45.3624V44.0734C98.4975 42.4932 99.2543 38.3433 99.4789 37.204C99.8448 35.3577 99.928 34.9419 100.992 30.9334C100.992 30.8252 101.633 29.0372 101.633 29.0372C101.644 29.0062 101.649 28.973 101.647 28.94C101.644 28.907 101.635 28.8749 101.619 28.8457C101.604 28.8166 101.582 28.7912 101.555 28.7711C101.529 28.7511 101.499 28.7369 101.467 28.7295C101.375 28.7295 99.2128 28.1973 98.9716 27.507C98.7304 26.8167 98.6805 25.9851 99.2876 25.6192C99.3099 25.603 99.3281 25.5817 99.3406 25.5571C99.3532 25.5326 99.3597 25.5054 99.3597 25.4778C99.3597 25.4502 99.3532 25.423 99.3406 25.3984C99.3281 25.3738 99.3099 25.3526 99.2876 25.3364C99.0218 25.1182 98.843 24.812 98.7835 24.4733C98.724 24.1347 98.7878 23.7859 98.9633 23.4901C99.1545 23.0993 98.1316 23.2905 99.3458 20.4879C99.6535 19.7976 100.693 17.6769 101.4 17.4441C102.026 17.383 102.658 17.4538 103.255 17.652C104.297 17.8162 105.322 18.0779 106.315 18.4337C106.378 18.4677 106.433 18.5158 106.474 18.5742C106.516 18.6327 106.543 18.7 106.555 18.7708C106.566 18.8417 106.561 18.9141 106.539 18.9826C106.518 19.0511 106.481 19.1137 106.431 19.1656C106.066 19.3726 105.666 19.5108 105.25 19.5731C102.631 20.0887 103.097 19.5149 102.756 20.4047C101.755 20.346 100.754 20.5256 99.8365 20.9287C99.4789 21.0035 99.6286 21.2364 99.8864 21.1948C101.001 20.8297 102.192 20.7693 103.338 21.0202C104.002 21.1416 104.652 21.334 105.275 21.594C105.841 21.8237 106.343 22.1859 106.739 22.6502C106.81 22.8261 106.836 23.0168 106.816 23.2053C106.796 23.3938 106.729 23.5745 106.623 23.7313C106.423 24.039 105.458 23.8311 105.092 23.7313C104.593 23.5816 104.07 23.4569 103.579 23.2989C102.889 23.0826 102.963 23.0244 102.747 23.0411C101.984 23.1491 101.238 23.3531 100.527 23.6482C100.507 23.6505 100.487 23.6573 100.47 23.6682C100.453 23.6792 100.439 23.6938 100.428 23.7111C100.418 23.7284 100.411 23.7479 100.409 23.7681C100.408 23.7883 100.41 23.8086 100.417 23.8275C100.425 23.8465 100.436 23.8635 100.451 23.8774C100.466 23.8913 100.483 23.9016 100.503 23.9075C100.522 23.9135 100.543 23.915 100.563 23.9118C100.583 23.9086 100.602 23.901 100.618 23.8893C101.255 23.7097 101.906 23.5845 102.564 23.5151C102.939 23.5151 102.697 23.5151 103.637 23.8893C104.061 24.0473 104.469 24.1721 104.918 24.3218C105.207 24.4208 105.505 24.4904 105.808 24.5297C106.34 25.0287 106.723 26.193 106.007 26.4009C105.726 26.4494 105.437 26.4147 105.176 26.3011C103.271 25.6774 104.56 25.2283 100.427 26.0766C100.393 26.0807 100.362 26.0977 100.341 26.124C100.319 26.1503 100.308 26.1839 100.311 26.2179C100.311 26.4342 100.452 26.3011 102.739 26.2179C103.015 26.1901 103.294 26.1901 103.571 26.2179C104.286 26.5839 105.35 27.2076 106.174 26.9664C107.18 26.6421 107.147 25.5277 106.498 24.7127C106.265 24.4299 106.24 24.5131 106.44 24.4798C106.586 24.464 106.727 24.4181 106.854 24.3451C106.982 24.2721 107.092 24.1736 107.18 24.0557C107.377 23.784 107.487 23.4591 107.496 23.1236C107.505 22.7882 107.412 22.4579 107.23 22.1761L108.627 22.592C108.904 23.8801 108.881 25.2145 108.56 26.4924C108.471 26.8044 108.354 27.1077 108.211 27.3989C107.604 28.6796 107.38 28.7212 107.454 28.9624C108.61 32.72 109.562 36.5373 110.307 40.3975C107.172 41.4953 101.425 44.0234 98.4227 45.3624ZM164.231 103.153C167.79 103.303 175.441 103.578 178.951 103.469C178.71 104.517 178.56 105.183 178.518 105.332C176.847 105.332 166.044 103.461 164.231 103.153ZM180.298 102.729C178.069 103.253 149.136 102.122 146.658 101.066C146.916 99.2031 149.344 88.7327 149.835 86.5954C152.018 87.2635 154.289 87.6 156.571 87.5933C157.403 88.0258 158.775 88.7743 159.598 89.1651C159.507 89.872 159.282 91.5436 159.781 92.0426C160.28 92.5416 171.765 96.758 181.837 97.939C181.43 99.568 180.916 101.168 180.298 102.729ZM149.569 82.7116C149.186 82.5953 148.832 82.3998 148.529 82.1377C148.313 81.9049 148.388 81.198 148.529 80.8653C148.607 80.7036 148.744 80.5784 148.912 80.516C149.115 80.4278 149.331 80.3743 149.552 80.358C149.618 80.3565 149.682 80.3348 149.736 80.2959C149.789 80.257 149.829 80.2027 149.851 80.1403C149.873 80.0779 149.875 80.0104 149.857 79.9467C149.839 79.8831 149.803 79.8264 149.752 79.7842C149.265 79.3743 148.926 78.8164 148.787 78.1957C148.787 77.7383 148.962 77.2643 149.694 76.8485C150.525 76.915 153.02 78.9775 154.176 77.7882C155.332 76.599 153.968 73.813 155.257 73.5801C156.546 73.3473 157.195 77.2227 157.42 77.6469C158.168 79.1022 160.181 80.1418 161.328 81.3394C160.635 83.8183 160.08 86.3337 159.665 88.8741C158.002 87.9842 156.771 87.2108 156.646 87.2108C154.908 87.1526 150.242 86.6702 149.028 85.431C148.812 85.2642 148.665 85.0245 148.613 84.7567C148.56 84.4888 148.608 84.2112 148.746 83.9757C148.834 83.8194 148.953 83.6827 149.096 83.574C149.239 83.4654 149.403 83.387 149.577 83.3436C149.648 83.3262 149.712 83.2851 149.757 83.2271C149.802 83.1691 149.825 83.0976 149.824 83.0243C149.823 82.9509 149.798 82.8801 149.751 82.8233C149.705 82.7665 149.641 82.7271 149.569 82.7116ZM158.833 55.0178C157.288 54.87 155.736 54.8089 154.184 54.8348C153.985 54.8348 153.819 54.9346 153.76 55.1259C153.619 55.6582 151.265 72.9564 151.149 73.8047C150.65 65.4882 150.134 56.731 149.752 50.3107C152.646 54.9263 152.895 55.3837 153.353 55.0594C154.895 53.7912 156.353 52.4244 157.719 50.9677C157.968 51.8908 158.368 53.3961 158.833 55.0178ZM166.443 52.0987C165.877 51.2671 165.32 50.4354 165.112 50.1277L167.799 43.3665L166.443 52.0987ZM168.381 42.5514C171.526 43.2001 174.593 44.1843 177.529 45.4871C177.404 45.878 175.799 50.7847 173.878 56.6395C172.996 56.5314 167.948 55.916 166.393 55.7496L168.381 42.5514ZM164.979 51.0509L166.293 53.0302L165.877 55.6914L164.588 55.5251C164.78 53.7204 164.913 52.0072 164.979 51.0509ZM187.941 59.8247C187.931 60.9075 187.825 61.9873 187.625 63.0515C184.772 62.3196 159.89 56.1987 157.361 57.6375C156.097 58.3693 151.939 75.4347 151.54 76.9732L151.24 76.8235C152.554 67.584 154.301 55.4669 154.301 55.4336C157.137 55.1093 184.456 58.203 187.941 59.8247ZM173.429 77.2144C171.566 77.0897 164.173 76.7237 162.617 77.755C162.376 77.9213 162.276 77.9546 161.42 81.0316C160.314 79.859 158.459 78.7529 157.835 77.4473C157.553 76.8734 157.095 72.6819 155.158 73.0063C152.546 73.447 155.881 78.8278 152.022 77.1645C152.272 76.1083 156.363 58.4941 157.503 57.8454C159.915 56.4732 186.219 63.1679 189.546 64.1077C189.355 66.1369 186.91 76.9649 186.461 78.9442C182.154 78.1166 177.802 77.5391 173.429 77.2144ZM160.621 19.0408C161.087 19.3569 161.07 20.1137 160.987 20.6626C160.405 24.38 156.679 26.6338 154.093 23.0743C153.503 22.2427 153.045 19.598 153.444 19.0159C153.71 18.6749 155.856 18.6583 156.289 18.6583C157.087 18.6666 160.206 18.7914 160.588 19.0408H160.621ZM150.717 19.6396C150.717 21.2031 150.193 23.7979 148.804 24.5463C146.567 25.7106 144.296 23.8644 144.238 21.4609C144.153 20.5835 144.195 19.6983 144.363 18.8329L144.446 18.7914C144.313 18.5585 150.159 18.4836 150.683 19.0076C150.701 19.2179 150.701 19.4293 150.683 19.6396H150.717ZM153.611 37.7445C155.049 38.1604 157.37 37.9608 158.484 36.8214C158.507 36.7967 158.521 36.764 158.521 36.7299C158.521 36.6959 158.507 36.6632 158.484 36.6384C158.293 36.4056 158.484 36.8547 156.322 37.179C154.16 37.5034 152.854 37.179 150.667 35.7569C149.661 34.8333 148.908 33.6682 148.479 32.3721C147.584 30.1786 147.023 27.8629 146.816 25.5027C147.599 25.6309 148.402 25.4995 149.103 25.1285C149.784 24.7305 150.311 24.1155 150.6 23.382C150.319 24.2609 150.089 25.1549 149.91 26.0599C149.871 26.1758 149.865 26.3002 149.893 26.4192C149.921 26.5382 149.981 26.6471 150.068 26.7336C150.643 27.085 151.32 27.2316 151.989 27.1494C152.009 27.1544 152.029 27.1549 152.049 27.1508C152.069 27.1466 152.088 27.138 152.104 27.1256C152.12 27.1131 152.133 27.0972 152.141 27.079C152.15 27.0608 152.155 27.0408 152.155 27.0205C152.155 27.0002 152.15 26.9802 152.141 26.962C152.133 26.9437 152.12 26.9278 152.104 26.9154C152.088 26.9029 152.069 26.8943 152.049 26.8902C152.029 26.8861 152.009 26.8865 151.989 26.8916C151.496 26.8366 151.019 26.6779 150.592 26.4258C150.4 26.2928 150.484 26.3759 150.542 26.1015C150.6 25.8271 151.681 21.8601 151.739 21.6106C151.997 21.6106 152.979 21.4776 152.979 21.2364C152.979 20.9952 152.197 20.9287 151.906 20.9453C151.906 20.8372 151.956 20.7457 151.981 20.6626C151.994 20.6295 151.993 20.5925 151.979 20.5597C151.965 20.527 151.939 20.5011 151.906 20.4879C151.873 20.4747 151.836 20.4751 151.803 20.4892C151.77 20.5032 151.744 20.5297 151.731 20.5628C151.44 21.1283 151.64 20.9204 151.249 21.0202C151.399 20.2512 151.399 19.4605 151.249 18.6916C150.775 17.9597 147.922 18.126 146.991 18.1842C147.465 15.3982 149.311 14.026 150.442 11.7972C150.759 11.2799 151.181 10.835 151.681 10.4915C151.931 10.425 152.421 11.0487 152.721 11.1984C153.02 11.3481 153.303 12.1715 153.552 12.4542C154.337 13.3474 155.241 14.1282 156.239 14.7745C157.07 15.365 158.368 15.4565 158.933 16.2133C159.172 16.8568 159.288 17.5395 159.274 18.2258C158.201 18.1593 153.727 18.0928 153.195 18.8579C152.712 19.4733 152.92 22.2843 153.627 23.3654C155.407 26.0599 158.143 26.2263 160.28 23.7979C160.51 23.5112 160.706 23.1986 160.863 22.8664C162.459 25.3613 163.715 26.85 163.773 29.7774C163.84 33.4865 162.792 39.6324 166.809 40.4058L167.499 42.3103C164.173 50.6766 164.347 50.1527 164.347 50.2358C164.347 50.319 164.189 52.7308 163.898 55.4918C162.301 55.3255 160.813 55.1841 159.49 55.076C159.391 54.735 158.151 50.3273 158.176 50.2358C158.301 49.82 157.677 49.005 157.195 48.2815C155.386 45.6626 153.411 43.1625 151.282 40.7967L153.611 37.7445ZM150.683 41.0212C150.825 41.2374 156.812 47.8241 157.544 50.2442C156.199 51.7355 154.745 53.1254 153.195 54.4024C152.638 53.6705 151.132 51.2588 149.702 49.005C149.444 44.6555 149.269 41.6283 149.228 40.9963C149.694 40.963 150.218 40.9879 150.65 41.0212H150.683ZM120.985 49.3377C120.037 47.6744 118.723 36.863 119.031 35.1997C119.031 35.05 119.031 35.0001 119.729 34.8088C122.707 34.0354 133.152 33.1455 134.25 33.5198C135.082 35.1415 136.903 45.7283 136.47 47.3583C135.622 48.0403 123.43 49.7618 120.952 49.3377H120.985ZM121.567 76.6988C120.611 74.8193 119.904 62.7687 120.378 62.3113C121.085 61.6294 134.358 61.0472 135.614 61.5379C136.445 63.2844 137.626 74.0126 137.136 75.4679C136.005 76.3162 123.53 77.1479 121.534 76.6988H121.567ZM140.554 62.7604C141.153 62.6024 145.327 61.5379 145.826 61.2385C146.184 61.0306 146.592 61.7042 139.597 42.5099C140.429 41.7447 147.698 40.7634 148.845 41.121C148.845 41.5784 149.935 60.989 150.791 76.5657C150.384 76.3661 149.793 76.0584 149.419 76.2663C147.856 77.098 147.756 78.4785 148.912 79.8258C148.696 79.8787 148.495 79.9815 148.326 80.1259C148.158 80.2704 148.025 80.4524 147.939 80.6574C147.806 80.9696 147.749 81.3091 147.773 81.6476C147.798 81.9861 147.903 82.3138 148.08 82.6035C148.274 82.7891 148.496 82.9434 148.737 83.0609C148.489 83.2274 148.293 83.461 148.172 83.7345C148.063 83.9702 147.998 84.2239 147.98 84.483L140.554 62.7604ZM161.253 114.514L150.392 115.72C150.442 115.32 151.665 105.682 152.055 102.413C154.318 102.613 157.045 102.787 159.964 102.945C160.447 108.942 161.295 113.083 161.22 114.514H161.253ZM161.827 114.447C161.944 112.551 160.38 103.045 160.372 102.962L161.204 103.004C164.031 103.528 171.316 104.817 172.106 104.95C172.373 107.628 173.038 113.865 173.196 115.146C160.796 114.347 162.135 114.414 161.786 114.447H161.827ZM205.954 96.6499C205.123 97.3152 192.906 98.4296 190.386 97.8808C189.413 95.9929 188.723 83.9507 189.197 83.4933C189.912 82.803 203.185 82.2375 204.424 82.7199C205.206 84.458 206.412 95.2278 205.921 96.6499H205.954Z" fill="black"/>
</svg>
